<svg width="24" height="22" viewBox="0 0 24 22" fill="none" xmlns="http://www.w3.org/2000/svg">
<path d="M23.9 1.05494C23.75 0.804938 23.5 0.654938 23.25 0.654938H0.75C0.45 0.704938 0.15 0.904938 0.05 1.15494C-0.05 1.40494 0 1.75494 0.2 2.00494L8.15 9.80494L10.9 21.1049C10.95 21.4049 11.2 21.6049 11.5 21.6549H11.6C11.85 21.6549 12.1 21.5049 12.25 21.3049L23.85 1.80494C24.05 1.60494 24.05 1.30494 23.9 1.05494ZM2.6 2.20494H20.35L9 8.50494L2.6 2.20494ZM11.95 19.0049L9.75 9.80494L21.2 3.45494L11.95 19.0049Z" fill="#262626"/>
</svg>
