<svg width="12" height="12" viewBox="0 0 12 12" fill="none" xmlns="http://www.w3.org/2000/svg">
<path d="M6 0C2.7 0 0 2.7 0 6C0 9.3 2.7 12 6 12C9.3 12 12 9.3 12 6C12 2.7 9.3 0 6 0ZM6 11.25C3.1 11.25 0.75 8.9 0.75 6C0.75 3.1 3.1 0.75 6 0.75C8.9 0.75 11.25 3.1 11.25 6C11.25 8.9 8.9 11.25 6 11.25ZM8.5 5.35L5.1 3.4C4.85 3.25 4.6 3.25 4.35 3.4C4.15 3.55 4 3.75 4 4.05V7.95C4 8.2 4.15 8.45 4.4 8.6C4.5 8.65 4.65 8.7 4.8 8.7C4.95 8.7 5.05 8.65 5.2 8.6L8.6 6.65C8.85 6.5 9 6.25 9 6C9 5.75 8.75 5.5 8.5 5.35ZM4.75 7.95V4.05L8.15 6L4.75 7.95Z" fill="#8E8E8E"/>
</svg>
